# xmcd
#
# Track frame offsets: 
#        165
#        23769
#        43230
#        62167
#        80666
#        102143
#        118287
#        139987
#        158255
#        185035
#        209268
#        226655
#        253337
#
# Disc length: 3642 seconds
#
# Revision: 13
# Processed by: cddbd v1.5.2PL0 Copyright (c) Steve Scherf et al.
# Submitted via: ExactAudioCopyFreeDBPlugin 1.0
#
DISCID=b50e380d
DTITLE=Kid Rock - Born Free
DYEAR=2010
DGENRE=Country
TTITLE0=Born Free
TTITLE1=Slow My Roll
TTITLE2=Care (feat. Martina McBride and T.I.)
TTITLE3=Purple Sky
TTITLE4=When It Rains
TTITLE5=God Bless Saturday
TTITLE6=Collide (feat. Sheryl Crow and Bob Seger)
TTITLE7=Flyin' High (feat. Zac Brown)
TTITLE8=Times Like These
TTITLE9=Rock On
TTITLE10=Rock Bottom Blues
TTITLE11=For The First Time (In A Long Time)
TTITLE12=Care (Demo) (feat. Mary J. Blige and T.I.)
EXTD=
EXTT0=
EXTT1=
EXTT2=
EXTT3=
EXTT4=
EXTT5=
EXTT6=
EXTT7=
EXTT8=
EXTT9=
EXTT10=
EXTT11=
EXTT12=
PLAYORDER=
